<svg width="48" height="48" viewBox="0 0 48 48" fill="none" xmlns="http://www.w3.org/2000/svg">
<path d="M25.2 24L17.4 16.2C17.0333 15.8333 16.85 15.3667 16.85 14.8C16.85 14.2333 17.0333 13.7667 17.4 13.4C17.7666 13.0333 18.2333 12.85 18.8 12.85C19.3666 12.85 19.8333 13.0333 20.2 13.4L29.4 22.6C29.6 22.8 29.7416 23.0167 29.825 23.25C29.9083 23.4833 29.95 23.7333 29.95 24C29.95 24.2667 29.9083 24.5167 29.825 24.75C29.7416 24.9833 29.6 25.2 29.4 25.4L20.2 34.6C19.8333 34.9667 19.3666 35.15 18.8 35.15C18.2333 35.15 17.7666 34.9667 17.4 34.6C17.0333 34.2333 16.85 33.7667 16.85 33.2C16.85 32.6333 17.0333 32.1667 17.4 31.8L25.2 24Z" fill="black" fill-opacity="0.5"/>
</svg>
