<svg width="48" height="48" viewBox="0 0 48 48" fill="none" xmlns="http://www.w3.org/2000/svg">
<path d="M22.8 24L30.6 31.8C30.9667 32.1667 31.15 32.6333 31.15 33.2C31.15 33.7667 30.9667 34.2333 30.6 34.6C30.2334 34.9667 29.7667 35.15 29.2 35.15C28.6334 35.15 28.1667 34.9667 27.8 34.6L18.6 25.4C18.4 25.2 18.2584 24.9833 18.175 24.75C18.0917 24.5167 18.05 24.2667 18.05 24C18.05 23.7333 18.0917 23.4833 18.175 23.25C18.2584 23.0167 18.4 22.8 18.6 22.6L27.8 13.4C28.1667 13.0333 28.6334 12.85 29.2 12.85C29.7667 12.85 30.2334 13.0333 30.6 13.4C30.9667 13.7667 31.15 14.2333 31.15 14.8C31.15 15.3667 30.9667 15.8333 30.6 16.2L22.8 24Z" fill="black" fill-opacity="0.5"/>
</svg>
