<svg width="63" height="61" viewBox="0 0 63 61" fill="none" xmlns="http://www.w3.org/2000/svg">
<g filter="url(#filter0_i_209_12)">
<path d="M13.974 34.4583L33.3698 53.8542C34.1615 54.6458 34.5408 55.5694 34.5078 56.625C34.4748 57.6806 34.0625 58.6042 33.2708 59.3958C32.4792 60.1215 31.5556 60.5009 30.5 60.5339C29.4444 60.5668 28.5208 60.1875 27.7292 59.3958L1.60417 33.2708C1.20833 32.875 0.927951 32.4462 0.763021 31.9844C0.59809 31.5226 0.515625 31.0278 0.515625 30.5C0.515625 29.9722 0.59809 29.4774 0.763021 29.0156C0.927951 28.5538 1.20833 28.125 1.60417 27.7292L27.7292 1.60417C28.4549 0.878472 29.362 0.515625 30.4505 0.515625C31.5391 0.515625 32.4792 0.878472 33.2708 1.60417C34.0625 2.39583 34.4583 3.33594 34.4583 4.42448C34.4583 5.51302 34.0625 6.45313 33.2708 7.24479L13.974 26.5417H58.2083C59.3299 26.5417 60.27 26.921 61.0286 27.6797C61.7873 28.4384 62.1667 29.3785 62.1667 30.5C62.1667 31.6215 61.7873 32.5616 61.0286 33.3203C60.27 34.079 59.3299 34.4583 58.2083 34.4583H13.974Z" fill="#ECB236"/>
</g>
<defs>
<filter id="filter0_i_209_12" x="0.515625" y="0.515625" width="61.6511" height="60.0202" filterUnits="userSpaceOnUse" color-interpolation-filters="sRGB">
<feFlood flood-opacity="0" result="BackgroundImageFix"/>
<feBlend mode="normal" in="SourceGraphic" in2="BackgroundImageFix" result="shape"/>
<feColorMatrix in="SourceAlpha" type="matrix" values="0 0 0 0 0 0 0 0 0 0 0 0 0 0 0 0 0 0 127 0" result="hardAlpha"/>
<feOffset dx="2" dy="2"/>
<feComposite in2="hardAlpha" operator="arithmetic" k2="-1" k3="1"/>
<feColorMatrix type="matrix" values="0 0 0 0 0.709804 0 0 0 0 0.52549 0 0 0 0 0.133333 0 0 0 1 0"/>
<feBlend mode="normal" in2="shape" result="effect1_innerShadow_209_12"/>
</filter>
</defs>
</svg>
