<svg width="16" height="16" viewBox="0 0 16 16" fill="none" xmlns="http://www.w3.org/2000/svg">
<path d="M8.00005 10.375L3.55005 14.825C3.21672 15.1583 2.81672 15.325 2.35005 15.325C1.88338 15.325 1.49172 15.1583 1.17505 14.825C0.841716 14.4917 0.675049 14.0958 0.675049 13.6375C0.675049 13.1792 0.841716 12.7833 1.17505 12.45L5.62505 7.99999L1.17505 3.52499C0.841716 3.19166 0.675049 2.79583 0.675049 2.33749C0.675049 1.87916 0.841716 1.48333 1.17505 1.14999C1.49172 0.816661 1.88338 0.649994 2.35005 0.649994C2.81672 0.649994 3.21672 0.816661 3.55005 1.14999L8.00005 5.59999L12.45 1.14999C12.7834 0.816661 13.1834 0.649994 13.65 0.649994C14.1167 0.649994 14.5084 0.816661 14.825 1.14999C15.1584 1.48333 15.325 1.87916 15.325 2.33749C15.325 2.79583 15.1584 3.19166 14.825 3.52499L10.375 7.99999L14.825 12.45C15.1584 12.7833 15.325 13.1792 15.325 13.6375C15.325 14.0958 15.1584 14.4917 14.825 14.825C14.5084 15.1583 14.1167 15.325 13.65 15.325C13.1834 15.325 12.7834 15.1583 12.45 14.825L8.00005 10.375Z" fill="#1B1B28"/>
</svg>
