<svg width="1426" height="23" viewBox="0 0 1426 23" fill="none" xmlns="http://www.w3.org/2000/svg">
<path d="M9.9 0H33L23.1 23H0L9.9 0Z" fill="#2D2D56"/>
<path d="M55.9 0H79L69.1 23H46L55.9 0Z" fill="#2D2D56"/>
<path d="M101.9 0H125L115.1 23H92L101.9 0Z" fill="#2D2D56"/>
<path d="M147.9 0H171L161.1 23H138L147.9 0Z" fill="#2D2D56"/>
<path d="M193.9 0H217L207.1 23H184L193.9 0Z" fill="#2D2D56"/>
<path d="M239.9 0H263L253.1 23H230L239.9 0Z" fill="#2D2D56"/>
<path d="M285.9 0H309L299.1 23H276L285.9 0Z" fill="#2D2D56"/>
<path d="M331.9 0H355L345.1 23H322L331.9 0Z" fill="#2D2D56"/>
<path d="M377.9 0H401L391.1 23H368L377.9 0Z" fill="#2D2D56"/>
<path d="M423.9 0H447L437.1 23H414L423.9 0Z" fill="#2D2D56"/>
<path d="M469.9 0H493L483.1 23H460L469.9 0Z" fill="#2D2D56"/>
<path d="M515.9 0H539L529.1 23H506L515.9 0Z" fill="#2D2D56"/>
<path d="M561.9 0H585L575.1 23H552L561.9 0Z" fill="#2D2D56"/>
<path d="M607.9 0H631L621.1 23H598L607.9 0Z" fill="#2D2D56"/>
<path d="M653.9 0H677L667.1 23H644L653.9 0Z" fill="#2D2D56"/>
<path d="M699.9 0H723L713.1 23H690L699.9 0Z" fill="#2D2D56"/>
<path d="M745.9 0H769L759.1 23H736L745.9 0Z" fill="#2D2D56"/>
<path d="M791.9 0H815L805.1 23H782L791.9 0Z" fill="#2D2D56"/>
<path d="M837.9 0H861L851.1 23H828L837.9 0Z" fill="#2D2D56"/>
<path d="M883.9 0H907L897.1 23H874L883.9 0Z" fill="#2D2D56"/>
<path d="M929.9 0H953L943.1 23H920L929.9 0Z" fill="#2D2D56"/>
<path d="M975.9 0H999L989.1 23H966L975.9 0Z" fill="#2D2D56"/>
<path d="M1021.9 0H1045L1035.1 23H1012L1021.9 0Z" fill="#2D2D56"/>
<path d="M1067.9 0H1091L1081.1 23H1058L1067.9 0Z" fill="#2D2D56"/>
<path d="M1113.9 0H1137L1127.1 23H1104L1113.9 0Z" fill="#2D2D56"/>
<path d="M1159.9 0H1183L1173.1 23H1150L1159.9 0Z" fill="#2D2D56"/>
<path d="M1205.9 0H1229L1219.1 23H1196L1205.9 0Z" fill="#2D2D56"/>
<path d="M1251.9 0H1275L1265.1 23H1242L1251.9 0Z" fill="#2D2D56"/>
<path d="M1297.9 0H1321L1311.1 23H1288L1297.9 0Z" fill="#2D2D56"/>
<path d="M1343.9 0H1367L1357.1 23H1334L1343.9 0Z" fill="#2D2D56"/>
<path d="M1389.9 0H1413L1403.1 23H1380L1389.9 0Z" fill="#2D2D56"/>
</svg>
