<svg width="27" height="35" viewBox="0 0 27 35" fill="none" xmlns="http://www.w3.org/2000/svg">
<path d="M2.35826 5.43359C2.07473 3.98614 1.84551 2.76044 1.69077 1.85271C2.39952 2.44058 3.34639 3.25195 4.45815 4.22122C6.88719 6.33894 10.0861 9.1953 13.2673 12.0822C16.4486 14.9693 19.6083 17.8833 21.9595 20.1165C23.1343 21.2323 24.1019 22.1731 24.7684 22.8538C24.7495 22.852 24.7305 22.85 24.7113 22.8481C24.1017 22.7862 23.3727 22.6932 22.5708 22.591C22.0711 22.5273 21.5432 22.46 20.9982 22.3943C19.599 22.2257 18.1108 22.0714 16.8282 22.0401C16.187 22.0245 15.5789 22.0391 15.0487 22.1027C14.534 22.1645 14.0209 22.2802 13.6187 22.5124C13.2164 22.7447 12.8597 23.1312 12.5488 23.546C12.2286 23.9734 11.9119 24.4927 11.6049 25.0558C10.9906 26.1822 10.3802 27.5482 9.82655 28.8443C9.61094 29.349 9.40527 29.8399 9.21062 30.3045C8.8982 31.0501 8.61418 31.7279 8.36301 32.2868C8.35508 32.3044 8.34721 32.3218 8.3394 32.3391C8.0831 31.4215 7.75217 30.1132 7.37326 28.5379C6.61489 25.3851 5.67113 21.1917 4.76153 16.993C3.85198 12.7946 2.97774 8.59607 2.35826 5.43359Z" fill="white" stroke="black" stroke-width="1.5"/>
</svg>
