<svg width="28" height="34" viewBox="0 0 28 34" fill="none" xmlns="http://www.w3.org/2000/svg">
<path d="M11.0287 33L1.9024 20.4286C1.52213 19.6667 0.0773197 18.8286 1.90259 17C3.72785 15.1714 7.22633 18.5238 8.74741 20.4286L8.74713 3.2857C8.74706 2.14286 9.20337 1 11.0286 1C12.8539 1 13.3102 2.14286 13.3102 3.28571L13.3105 8.42858C13.3105 7.85715 13.7668 6.71429 15.5921 6.71429C17.4174 6.71429 17.8737 7.85715 17.8737 8.42858V10.8124C17.9224 9.69971 18.2455 9 20 9C22.3783 9 22.4368 10.1429 22.4368 12.1429V13.7109C22.4824 12.0516 22.7907 11.5 24.5 11.5C26.8014 11.5 26.5 13 26.5 15C26.5 17 25.859 33 22.4366 33H11.0287Z" fill="white"/>
<path d="M13.3105 15.8572V8.42858M13.3105 8.42858L13.3102 3.28571C13.3102 2.14286 12.8539 1 11.0286 1C9.20337 1 8.74706 2.14286 8.74713 3.2857L8.74741 20.4286C7.22633 18.5238 3.72785 15.1714 1.90259 17C0.0773197 18.8286 1.52213 19.6667 1.9024 20.4286L11.0287 33C14.8313 33 19.6987 33 22.4366 33C25.859 33 26.5 17 26.5 15C26.5 13 26.8014 11.5 24.5 11.5C22.1986 11.5 22.4368 12.5 22.4368 15.8571V12.1429C22.4368 10.1429 22.3783 9 20 9C17.6217 9 17.8737 10.2857 17.8737 12.1429M13.3105 8.42858C13.3105 7.85715 13.7668 6.71429 15.5921 6.71429C17.4174 6.71429 17.8737 7.85715 17.8737 8.42858V12.1429M17.8737 15.8572V12.1429" stroke="black" stroke-width="1.5"/>
</svg>
