<svg width="38" height="32" viewBox="0 0 38 32" fill="none" xmlns="http://www.w3.org/2000/svg">
<rect width="38" height="32" rx="2" fill="#3B3B4E"/>
<rect x="1" y="1" width="3" height="3" rx="1.5" fill="#212130"/>
<rect x="1" y="28" width="3" height="3" rx="1.5" fill="#212130"/>
<rect x="34" y="1" width="3" height="3" rx="1.5" fill="#212130"/>
<rect x="34" y="28" width="3" height="3" rx="1.5" fill="#212130"/>
<circle cx="19" cy="16" r="1" fill="#0C0C0C"/>
<circle cx="19" cy="13" r="1" fill="#121212"/>
<circle cx="19" cy="19" r="1" fill="#121212"/>
<circle cx="22" cy="16" r="1" fill="#121212"/>
<circle cx="22" cy="13" r="1" fill="#121212"/>
<circle cx="22" cy="19" r="1" fill="#121212"/>
<circle cx="16" cy="16" r="1" fill="#121212"/>
<circle cx="16" cy="13" r="1" fill="#121212"/>
<circle cx="16" cy="19" r="1" fill="#121212"/>
<circle cx="10" cy="16" r="1" fill="#1A1A1A"/>
<circle cx="10" cy="13" r="1" fill="#1A1A1A"/>
<circle cx="10" cy="19" r="1" fill="#1A1A1A"/>
<circle cx="13" cy="16" r="1" fill="#141414"/>
<circle cx="13" cy="13" r="1" fill="#141414"/>
<circle cx="13" cy="19" r="1" fill="#141414"/>
<circle cx="28" cy="22" r="1" fill="#1E1E1E"/>
<circle cx="28" cy="10" r="1" fill="#1E1E1E"/>
<circle cx="31" cy="10" r="1" fill="#1E1E1E"/>
<circle cx="31" cy="22" r="1" fill="#1E1E1E"/>
<circle cx="28" cy="25" r="1" fill="#1E1E1E"/>
<circle cx="25" cy="28" r="1" fill="#1E1E1E"/>
<circle cx="25" cy="4" r="1" fill="#1E1E1E"/>
<circle cx="28" cy="7" r="1" fill="#1E1E1E"/>
<circle cx="10" cy="22" r="1" fill="#1E1E1E"/>
<circle cx="13" cy="22" r="1" fill="#1A1A1A"/>
<circle cx="13" cy="25" r="1" fill="#1E1E1E"/>
<circle cx="13" cy="10" r="1" fill="#1A1A1A"/>
<circle cx="13" cy="7" r="1" fill="#1E1E1E"/>
<circle cx="10" cy="10" r="1" fill="#1E1E1E"/>
<circle cx="7" cy="10" r="1" fill="#1E1E1E"/>
<circle cx="7" cy="22" r="1" fill="#1E1E1E"/>
<circle cx="10" cy="7" r="1" fill="#1E1E1E"/>
<circle cx="13" cy="4" r="1" fill="#1E1E1E"/>
<circle cx="25" cy="7" r="1" fill="#1E1E1E"/>
<circle cx="25" cy="10" r="1" fill="#1A1A1A"/>
<circle cx="10" cy="25" r="1" fill="#1E1E1E"/>
<circle cx="13" cy="28" r="1" fill="#1E1E1E"/>
<circle cx="25" cy="22" r="1" fill="#1A1A1A"/>
<circle cx="25" cy="25" r="1" fill="#1E1E1E"/>
<circle cx="7" cy="16" r="1" fill="#1E1E1E"/>
<circle cx="7" cy="13" r="1" fill="#1E1E1E"/>
<circle cx="7" cy="19" r="1" fill="#1E1E1E"/>
<circle cx="19" cy="7" r="1" fill="#1A1A1A"/>
<circle cx="19" cy="4" r="1" fill="#1E1E1E"/>
<circle cx="19" cy="10" r="1" fill="#141414"/>
<circle cx="22" cy="7" r="1" fill="#1A1A1A"/>
<circle cx="22" cy="4" r="1" fill="#1E1E1E"/>
<circle cx="22" cy="10" r="1" fill="#141414"/>
<circle cx="16" cy="7" r="1" fill="#1A1A1A"/>
<circle cx="16" cy="4" r="1" fill="#1E1E1E"/>
<circle cx="16" cy="10" r="1" fill="#141414"/>
<circle cx="28" cy="16" r="1" fill="#1A1A1A"/>
<circle cx="28" cy="13" r="1" fill="#1A1A1A"/>
<circle cx="28" cy="19" r="1" fill="#1A1A1A"/>
<circle cx="31" cy="16" r="1" fill="#1E1E1E"/>
<circle cx="31" cy="13" r="1" fill="#1E1E1E"/>
<circle cx="31" cy="19" r="1" fill="#1E1E1E"/>
<circle cx="25" cy="16" r="1" fill="#141414"/>
<circle cx="25" cy="13" r="1" fill="#141414"/>
<circle cx="25" cy="19" r="1" fill="#141414"/>
<circle cx="19" cy="25" r="1" fill="#1A1A1A"/>
<circle cx="19" cy="22" r="1" fill="#141414"/>
<circle cx="19" cy="28" r="1" fill="#1E1E1E"/>
<circle cx="22" cy="25" r="1" fill="#1A1A1A"/>
<circle cx="22" cy="22" r="1" fill="#141414"/>
<circle cx="22" cy="28" r="1" fill="#1E1E1E"/>
<circle cx="16" cy="25" r="1" fill="#1A1A1A"/>
<circle cx="16" cy="22" r="1" fill="#141414"/>
<circle cx="16" cy="28" r="1" fill="#1E1E1E"/>
</svg>
