<svg width="135" height="135" viewBox="0 0 135 135" fill="none" xmlns="http://www.w3.org/2000/svg">
<g filter="url(#filter0_d_69_135)">
<path d="M111.333 65.25C111.333 52.4125 106.862 41.5226 97.9198 32.5802C88.9774 23.6378 78.0875 19.1667 65.25 19.1667V6C73.4792 6 81.1872 7.56354 88.374 10.6906C95.5608 13.8177 101.815 18.042 107.136 23.3635C112.458 28.6851 116.682 34.9392 119.809 42.126C122.936 49.3128 124.5 57.0208 124.5 65.25H111.333ZM85 65.25C85 59.7639 83.0799 55.1007 79.2396 51.2604C75.3993 47.4201 70.7361 45.5 65.25 45.5V32.3333C74.3569 32.3333 82.1198 35.5427 88.5385 41.9615C94.9573 48.3802 98.1667 56.1431 98.1667 65.25H85ZM117.588 124.5C103.872 124.5 90.3215 121.51 76.9354 115.53C63.5493 109.55 51.3701 101.074 40.3979 90.1021C29.4257 79.1299 20.9497 66.9507 14.9698 53.5646C8.98993 40.1785 6 26.6278 6 12.9125C6 10.9375 6.65833 9.29167 7.975 7.975C9.29167 6.65833 10.9375 6 12.9125 6H39.575C41.1111 6 42.4826 6.52118 43.6896 7.56354C44.8965 8.6059 45.6097 9.84028 45.8292 11.2667L50.1083 34.3083C50.3278 36.0639 50.2729 37.5451 49.9438 38.7521C49.6146 39.959 49.0111 41.0014 48.1333 41.8792L32.1688 58.0083C34.3632 62.0681 36.9691 65.9906 39.9865 69.776C43.0038 73.5615 46.3229 77.2097 49.9438 80.7208C53.3451 84.1222 56.9111 87.2767 60.6417 90.1844C64.3722 93.092 68.3222 95.7528 72.4917 98.1667L87.9625 82.6958C88.95 81.7083 90.2392 80.9677 91.8302 80.474C93.4212 79.9802 94.9847 79.8431 96.5208 80.0625L119.233 84.6708C120.769 85.1097 122.031 85.9052 123.019 87.0573C124.006 88.2094 124.5 89.4986 124.5 90.925V117.588C124.5 119.563 123.842 121.208 122.525 122.525C121.208 123.842 119.563 124.5 117.588 124.5ZM25.9146 45.5L36.7771 34.6375L33.9792 19.1667H19.3313C19.8799 23.6653 20.6479 28.109 21.6354 32.4979C22.6229 36.8868 24.0493 41.2208 25.9146 45.5ZM84.8354 104.421C89.1146 106.286 93.476 107.767 97.9198 108.865C102.364 109.962 106.835 110.675 111.333 111.004V96.5208L95.8625 93.3938L84.8354 104.421Z" fill="#4989F6"/>
<path d="M108.333 65.25V68.25H111.333H124.5H127.5V65.25C127.5 56.63 125.86 48.5123 122.56 40.9291C119.289 33.412 114.856 26.8407 109.258 21.2422C103.659 15.6438 97.0881 11.2106 89.5709 7.93975C81.9877 4.64018 73.87 3 65.25 3H62.25V6V19.1667V22.1667H65.25C77.3054 22.1667 87.4282 26.3313 95.7985 34.7015C104.169 43.0718 108.333 53.1947 108.333 65.25ZM82 65.25V68.25H85H98.1667H101.167V65.25C101.167 55.3503 97.6433 46.8236 90.6599 39.8401C83.6765 32.8567 75.1497 29.3333 65.25 29.3333H62.25V32.3333V45.5V48.5H65.25C69.9495 48.5 73.847 50.1105 77.1183 53.3817C80.3895 56.653 82 60.5505 82 65.25ZM53.0852 33.9362L53.0741 33.848L53.0579 33.7606L48.7864 10.76C48.4377 8.5754 47.3235 6.73801 45.6504 5.29307C43.9213 3.79973 41.8606 3 39.575 3H12.9125C10.1954 3 7.76973 3.93763 5.85368 5.85368C3.93763 7.76973 3 10.1954 3 12.9125C3 27.078 6.09088 41.0441 12.2307 54.7882C18.3685 68.5279 27.0606 81.0075 38.2766 92.2234C49.4925 103.439 61.9721 112.132 75.7118 118.269C89.4559 124.409 103.422 127.5 117.588 127.5C120.305 127.5 122.73 126.562 124.646 124.646C126.562 122.73 127.5 120.305 127.5 117.588V90.925C127.5 88.7345 126.718 86.7631 125.297 85.1049C123.906 83.4821 122.128 82.3777 120.058 81.7863L119.945 81.7541L119.83 81.7307L97.1174 77.1224L97.0317 77.105L96.9451 77.0927C94.937 76.8058 92.9248 76.9931 90.941 77.6088C88.9743 78.2191 87.2335 79.1822 85.8412 80.5745L72.0187 94.397C68.6899 92.3702 65.5125 90.1772 62.4859 87.8182C58.8543 84.9877 55.3807 81.9151 52.0651 78.5995L52.0488 78.5832L52.0322 78.5671C48.4993 75.1413 45.2668 71.5875 42.3324 67.9061C39.9039 64.8595 37.7576 61.7284 35.8903 58.513L50.2547 44.0005C50.2567 43.9984 50.2588 43.9964 50.2608 43.9943C51.5075 42.7456 52.3734 41.2451 52.838 39.5414C53.3036 37.8344 53.3346 35.9316 53.0852 33.9362ZM33.5456 33.6264L27.0095 40.1624C26.0061 37.407 25.1908 34.6328 24.5622 31.8394C23.8436 28.6454 23.2437 25.4212 22.7627 22.1667H31.4731L33.5456 33.6264ZM98.6389 105.952C95.7799 105.246 92.9544 104.375 90.1621 103.337L96.8457 96.6532L108.333 98.9751V107.708C105.089 107.332 101.858 106.747 98.6389 105.952Z" stroke="black" stroke-width="6"/>
</g>
<defs>
<filter id="filter0_d_69_135" x="0" y="0" width="134.5" height="134.5" filterUnits="userSpaceOnUse" color-interpolation-filters="sRGB">
<feFlood flood-opacity="0" result="BackgroundImageFix"/>
<feColorMatrix in="SourceAlpha" type="matrix" values="0 0 0 0 0 0 0 0 0 0 0 0 0 0 0 0 0 0 127 0" result="hardAlpha"/>
<feOffset dx="4" dy="4"/>
<feComposite in2="hardAlpha" operator="out"/>
<feColorMatrix type="matrix" values="0 0 0 0 0 0 0 0 0 0 0 0 0 0 0 0 0 0 0.25 0"/>
<feBlend mode="normal" in2="BackgroundImageFix" result="effect1_dropShadow_69_135"/>
<feBlend mode="normal" in="SourceGraphic" in2="effect1_dropShadow_69_135" result="shape"/>
</filter>
</defs>
</svg>
